<?xml version="1.0" encoding="UTF-8"?>
<!-- Peridot Agent — pixel-art deer mascot (32x32).
     Generated by scripts/render-mascot.py from the GRID literal.
     Palette mirrors crates/peridot-tui/src/mascot/frames.rs. -->
<svg xmlns="http://www.w3.org/2000/svg" viewBox="0 0 32 32" shape-rendering="crispEdges">
  <rect x="16" y="1" width="1" height="1" fill="#365C1E"/>
  <rect x="21" y="1" width="1" height="1" fill="#365C1E"/>
  <rect x="24" y="1" width="1" height="1" fill="#365C1E"/>
  <rect x="29" y="1" width="1" height="1" fill="#365C1E"/>
  <rect x="15" y="2" width="3" height="1" fill="#365C1E"/>
  <rect x="20" y="2" width="5" height="1" fill="#365C1E"/>
  <rect x="29" y="2" width="2" height="1" fill="#365C1E"/>
  <rect x="14" y="3" width="4" height="1" fill="#365C1E"/>
  <rect x="20" y="3" width="4" height="1" fill="#365C1E"/>
  <rect x="30" y="3" width="1" height="1" fill="#365C1E"/>
  <rect x="14" y="4" width="3" height="1" fill="#365C1E"/>
  <rect x="21" y="4" width="2" height="1" fill="#365C1E"/>
  <rect x="30" y="4" width="1" height="1" fill="#365C1E"/>
  <rect x="15" y="5" width="2" height="1" fill="#365C1E"/>
  <rect x="21" y="5" width="2" height="1" fill="#365C1E"/>
  <rect x="29" y="5" width="2" height="1" fill="#365C1E"/>
  <rect x="15" y="6" width="2" height="1" fill="#365C1E"/>
  <rect x="21" y="6" width="2" height="1" fill="#365C1E"/>
  <rect x="28" y="6" width="3" height="1" fill="#365C1E"/>
  <rect x="13" y="7" width="12" height="1" fill="#365C1E"/>
  <rect x="27" y="7" width="4" height="1" fill="#365C1E"/>
  <rect x="12" y="8" width="1" height="1" fill="#365C1E"/>
  <rect x="13" y="8" width="12" height="1" fill="#D2E882"/>
  <rect x="25" y="8" width="2" height="1" fill="#365C1E"/>
  <rect x="11" y="9" width="1" height="1" fill="#365C1E"/>
  <rect x="12" y="9" width="3" height="1" fill="#D2E882"/>
  <rect x="15" y="9" width="8" height="1" fill="#A8D352"/>
  <rect x="23" y="9" width="4" height="1" fill="#D2E882"/>
  <rect x="27" y="9" width="1" height="1" fill="#365C1E"/>
  <rect x="10" y="10" width="1" height="1" fill="#365C1E"/>
  <rect x="11" y="10" width="2" height="1" fill="#D2E882"/>
  <rect x="13" y="10" width="12" height="1" fill="#A8D352"/>
  <rect x="25" y="10" width="3" height="1" fill="#D2E882"/>
  <rect x="28" y="10" width="1" height="1" fill="#365C1E"/>
  <rect x="9" y="11" width="1" height="1" fill="#365C1E"/>
  <rect x="10" y="11" width="2" height="1" fill="#D2E882"/>
  <rect x="12" y="11" width="4" height="1" fill="#A8D352"/>
  <rect x="16" y="11" width="4" height="1" fill="#287538"/>
  <rect x="20" y="11" width="6" height="1" fill="#A8D352"/>
  <rect x="26" y="11" width="3" height="1" fill="#D2E882"/>
  <rect x="29" y="11" width="1" height="1" fill="#365C1E"/>
  <rect x="9" y="12" width="1" height="1" fill="#365C1E"/>
  <rect x="10" y="12" width="1" height="1" fill="#D2E882"/>
  <rect x="11" y="12" width="4" height="1" fill="#A8D352"/>
  <rect x="15" y="12" width="1" height="1" fill="#287538"/>
  <rect x="16" y="12" width="4" height="1" fill="#5BD46E"/>
  <rect x="20" y="12" width="1" height="1" fill="#287538"/>
  <rect x="21" y="12" width="7" height="1" fill="#A8D352"/>
  <rect x="28" y="12" width="1" height="1" fill="#D2E882"/>
  <rect x="29" y="12" width="1" height="1" fill="#365C1E"/>
  <rect x="9" y="13" width="1" height="1" fill="#365C1E"/>
  <rect x="10" y="13" width="1" height="1" fill="#D2E882"/>
  <rect x="11" y="13" width="3" height="1" fill="#A8D352"/>
  <rect x="14" y="13" width="1" height="1" fill="#287538"/>
  <rect x="15" y="13" width="2" height="1" fill="#5BD46E"/>
  <rect x="17" y="13" width="2" height="1" fill="#E1FFD7"/>
  <rect x="19" y="13" width="1" height="1" fill="#5BD46E"/>
  <rect x="20" y="13" width="1" height="1" fill="#287538"/>
  <rect x="21" y="13" width="7" height="1" fill="#A8D352"/>
  <rect x="28" y="13" width="1" height="1" fill="#D2E882"/>
  <rect x="29" y="13" width="1" height="1" fill="#365C1E"/>
  <rect x="9" y="14" width="1" height="1" fill="#365C1E"/>
  <rect x="10" y="14" width="1" height="1" fill="#D2E882"/>
  <rect x="11" y="14" width="1" height="1" fill="#A8D352"/>
  <rect x="12" y="14" width="2" height="1" fill="#F8FDE8"/>
  <rect x="14" y="14" width="1" height="1" fill="#A8D352"/>
  <rect x="15" y="14" width="1" height="1" fill="#287538"/>
  <rect x="16" y="14" width="3" height="1" fill="#5BD46E"/>
  <rect x="19" y="14" width="1" height="1" fill="#287538"/>
  <rect x="20" y="14" width="1" height="1" fill="#A8D352"/>
  <rect x="21" y="14" width="2" height="1" fill="#F8FDE8"/>
  <rect x="23" y="14" width="5" height="1" fill="#A8D352"/>
  <rect x="28" y="14" width="1" height="1" fill="#D2E882"/>
  <rect x="29" y="14" width="1" height="1" fill="#365C1E"/>
  <rect x="9" y="15" width="1" height="1" fill="#365C1E"/>
  <rect x="10" y="15" width="1" height="1" fill="#D2E882"/>
  <rect x="11" y="15" width="1" height="1" fill="#A8D352"/>
  <rect x="12" y="15" width="1" height="1" fill="#F8FDE8"/>
  <rect x="13" y="15" width="1" height="1" fill="#1C1C20"/>
  <rect x="14" y="15" width="1" height="1" fill="#F8FDE8"/>
  <rect x="15" y="15" width="1" height="1" fill="#A8D352"/>
  <rect x="16" y="15" width="3" height="1" fill="#287538"/>
  <rect x="19" y="15" width="1" height="1" fill="#A8D352"/>
  <rect x="20" y="15" width="1" height="1" fill="#F8FDE8"/>
  <rect x="21" y="15" width="1" height="1" fill="#1C1C20"/>
  <rect x="22" y="15" width="1" height="1" fill="#F8FDE8"/>
  <rect x="23" y="15" width="5" height="1" fill="#A8D352"/>
  <rect x="28" y="15" width="1" height="1" fill="#D2E882"/>
  <rect x="29" y="15" width="1" height="1" fill="#365C1E"/>
  <rect x="9" y="16" width="1" height="1" fill="#365C1E"/>
  <rect x="10" y="16" width="1" height="1" fill="#D2E882"/>
  <rect x="11" y="16" width="2" height="1" fill="#A8D352"/>
  <rect x="13" y="16" width="2" height="1" fill="#F8FDE8"/>
  <rect x="15" y="16" width="5" height="1" fill="#A8D352"/>
  <rect x="20" y="16" width="2" height="1" fill="#F8FDE8"/>
  <rect x="22" y="16" width="6" height="1" fill="#A8D352"/>
  <rect x="28" y="16" width="1" height="1" fill="#D2E882"/>
  <rect x="29" y="16" width="1" height="1" fill="#365C1E"/>
  <rect x="9" y="17" width="1" height="1" fill="#365C1E"/>
  <rect x="10" y="17" width="1" height="1" fill="#D2E882"/>
  <rect x="11" y="17" width="17" height="1" fill="#A8D352"/>
  <rect x="28" y="17" width="1" height="1" fill="#D2E882"/>
  <rect x="29" y="17" width="1" height="1" fill="#365C1E"/>
  <rect x="10" y="18" width="1" height="1" fill="#365C1E"/>
  <rect x="11" y="18" width="1" height="1" fill="#D2E882"/>
  <rect x="12" y="18" width="5" height="1" fill="#A8D352"/>
  <rect x="17" y="18" width="2" height="1" fill="#FFB6C1"/>
  <rect x="19" y="18" width="8" height="1" fill="#A8D352"/>
  <rect x="27" y="18" width="1" height="1" fill="#D2E882"/>
  <rect x="28" y="18" width="1" height="1" fill="#365C1E"/>
  <rect x="10" y="19" width="1" height="1" fill="#365C1E"/>
  <rect x="11" y="19" width="1" height="1" fill="#D2E882"/>
  <rect x="12" y="19" width="5" height="1" fill="#A8D352"/>
  <rect x="17" y="19" width="2" height="1" fill="#5A381E"/>
  <rect x="19" y="19" width="8" height="1" fill="#A8D352"/>
  <rect x="27" y="19" width="1" height="1" fill="#D2E882"/>
  <rect x="28" y="19" width="1" height="1" fill="#365C1E"/>
  <rect x="11" y="20" width="1" height="1" fill="#365C1E"/>
  <rect x="12" y="20" width="2" height="1" fill="#D2E882"/>
  <rect x="14" y="20" width="11" height="1" fill="#A8D352"/>
  <rect x="25" y="20" width="2" height="1" fill="#D2E882"/>
  <rect x="27" y="20" width="1" height="1" fill="#365C1E"/>
  <rect x="12" y="21" width="2" height="1" fill="#365C1E"/>
  <rect x="14" y="21" width="11" height="1" fill="#D2E882"/>
  <rect x="25" y="21" width="2" height="1" fill="#365C1E"/>
  <rect x="13" y="22" width="1" height="1" fill="#365C1E"/>
  <rect x="14" y="22" width="11" height="1" fill="#85B240"/>
  <rect x="25" y="22" width="1" height="1" fill="#365C1E"/>
  <rect x="12" y="23" width="1" height="1" fill="#365C1E"/>
  <rect x="13" y="23" width="13" height="1" fill="#85B240"/>
  <rect x="26" y="23" width="1" height="1" fill="#365C1E"/>
  <rect x="11" y="24" width="1" height="1" fill="#365C1E"/>
  <rect x="12" y="24" width="2" height="1" fill="#85B240"/>
  <rect x="14" y="24" width="3" height="1" fill="#D2E882"/>
  <rect x="17" y="24" width="2" height="1" fill="#85B240"/>
  <rect x="19" y="24" width="1" height="1" fill="#5BD46E"/>
  <rect x="20" y="24" width="1" height="1" fill="#287538"/>
  <rect x="21" y="24" width="2" height="1" fill="#85B240"/>
  <rect x="23" y="24" width="2" height="1" fill="#D2E882"/>
  <rect x="25" y="24" width="2" height="1" fill="#85B240"/>
  <rect x="27" y="24" width="1" height="1" fill="#365C1E"/>
  <rect x="11" y="25" width="1" height="1" fill="#365C1E"/>
  <rect x="12" y="25" width="1" height="1" fill="#85B240"/>
  <rect x="13" y="25" width="4" height="1" fill="#D2E882"/>
  <rect x="17" y="25" width="1" height="1" fill="#85B240"/>
  <rect x="18" y="25" width="1" height="1" fill="#5BD46E"/>
  <rect x="19" y="25" width="1" height="1" fill="#E1FFD7"/>
  <rect x="20" y="25" width="1" height="1" fill="#5BD46E"/>
  <rect x="21" y="25" width="1" height="1" fill="#85B240"/>
  <rect x="22" y="25" width="4" height="1" fill="#D2E882"/>
  <rect x="26" y="25" width="1" height="1" fill="#85B240"/>
  <rect x="27" y="25" width="1" height="1" fill="#365C1E"/>
  <rect x="11" y="26" width="1" height="1" fill="#365C1E"/>
  <rect x="12" y="26" width="1" height="1" fill="#85B240"/>
  <rect x="13" y="26" width="2" height="1" fill="#D2E882"/>
  <rect x="15" y="26" width="2" height="1" fill="#85B240"/>
  <rect x="17" y="26" width="1" height="1" fill="#287538"/>
  <rect x="18" y="26" width="1" height="1" fill="#5BD46E"/>
  <rect x="19" y="26" width="1" height="1" fill="#287538"/>
  <rect x="20" y="26" width="2" height="1" fill="#85B240"/>
  <rect x="22" y="26" width="3" height="1" fill="#D2E882"/>
  <rect x="25" y="26" width="2" height="1" fill="#85B240"/>
  <rect x="27" y="26" width="1" height="1" fill="#365C1E"/>
  <rect x="11" y="27" width="1" height="1" fill="#365C1E"/>
  <rect x="12" y="27" width="15" height="1" fill="#85B240"/>
  <rect x="27" y="27" width="1" height="1" fill="#365C1E"/>
  <rect x="11" y="28" width="1" height="1" fill="#365C1E"/>
  <rect x="12" y="28" width="3" height="1" fill="#85B240"/>
  <rect x="15" y="28" width="2" height="1" fill="#365C1E"/>
  <rect x="17" y="28" width="4" height="1" fill="#85B240"/>
  <rect x="21" y="28" width="2" height="1" fill="#365C1E"/>
  <rect x="23" y="28" width="4" height="1" fill="#85B240"/>
  <rect x="27" y="28" width="1" height="1" fill="#365C1E"/>
  <rect x="12" y="29" width="1" height="1" fill="#365C1E"/>
  <rect x="13" y="29" width="3" height="1" fill="#7A4F2C"/>
  <rect x="16" y="29" width="1" height="1" fill="#365C1E"/>
  <rect x="21" y="29" width="1" height="1" fill="#365C1E"/>
  <rect x="22" y="29" width="3" height="1" fill="#7A4F2C"/>
  <rect x="25" y="29" width="1" height="1" fill="#365C1E"/>
  <rect x="12" y="30" width="1" height="1" fill="#365C1E"/>
  <rect x="13" y="30" width="1" height="1" fill="#5A381E"/>
  <rect x="14" y="30" width="2" height="1" fill="#7A4F2C"/>
  <rect x="16" y="30" width="1" height="1" fill="#365C1E"/>
  <rect x="21" y="30" width="1" height="1" fill="#365C1E"/>
  <rect x="22" y="30" width="1" height="1" fill="#5A381E"/>
  <rect x="23" y="30" width="2" height="1" fill="#7A4F2C"/>
  <rect x="25" y="30" width="1" height="1" fill="#365C1E"/>
</svg>
