<?xml version="1.0" encoding="UTF-8"?>
<!-- Peridot Agent activity bar icon.
     Pixel-art deer mascot, 32×32 vector. Scales cleanly to the 24×24
     activity bar slot. Palette matches resources/peridot-icon.png and
     the TUI mascot at crates/peridot-tui/src/mascot/frames.rs. -->
<svg xmlns="http://www.w3.org/2000/svg" viewBox="0 0 32 32" shape-rendering="crispEdges">
  <rect x="6"  y="2" width="2" height="2" fill="#365C1E"/>
  <rect x="10" y="2" width="2" height="2" fill="#365C1E"/>
  <rect x="20" y="2" width="2" height="2" fill="#365C1E"/>
  <rect x="24" y="2" width="2" height="2" fill="#365C1E"/>
  <rect x="6"  y="4" width="2" height="2" fill="#365C1E"/>
  <rect x="10" y="4" width="2" height="2" fill="#365C1E"/>
  <rect x="20" y="4" width="2" height="2" fill="#365C1E"/>
  <rect x="24" y="4" width="2" height="2" fill="#365C1E"/>
  <rect x="6"  y="6" width="6" height="2" fill="#365C1E"/>
  <rect x="20" y="6" width="6" height="2" fill="#365C1E"/>
  <rect x="8"  y="8" width="2" height="2" fill="#365C1E"/>
  <rect x="22" y="8" width="2" height="2" fill="#365C1E"/>
  <rect x="8"  y="10" width="2" height="2" fill="#365C1E"/>
  <rect x="10" y="10" width="12" height="2" fill="#85B240"/>
  <rect x="22" y="10" width="2" height="2" fill="#365C1E"/>
  <rect x="6"  y="12" width="2" height="2" fill="#365C1E"/>
  <rect x="8"  y="12" width="2" height="2" fill="#85B240"/>
  <rect x="10" y="12" width="12" height="2" fill="#D2E882"/>
  <rect x="22" y="12" width="2" height="2" fill="#85B240"/>
  <rect x="24" y="12" width="2" height="2" fill="#365C1E"/>
  <rect x="6"  y="14" width="2" height="2" fill="#365C1E"/>
  <rect x="8"  y="14" width="2" height="2" fill="#D2E882"/>
  <rect x="10" y="14" width="2" height="2" fill="#F4F8E0"/>
  <rect x="12" y="14" width="2" height="2" fill="#D2E882"/>
  <rect x="14" y="14" width="2" height="2" fill="#287538"/>
  <rect x="16" y="14" width="2" height="2" fill="#5BD46E"/>
  <rect x="18" y="14" width="2" height="2" fill="#D2E882"/>
  <rect x="20" y="14" width="2" height="2" fill="#F4F8E0"/>
  <rect x="22" y="14" width="2" height="2" fill="#D2E882"/>
  <rect x="24" y="14" width="2" height="2" fill="#365C1E"/>
  <rect x="6"  y="16" width="2" height="2" fill="#365C1E"/>
  <rect x="8"  y="16" width="2" height="2" fill="#D2E882"/>
  <rect x="10" y="16" width="2" height="2" fill="#1C1C20"/>
  <rect x="12" y="16" width="2" height="2" fill="#D2E882"/>
  <rect x="14" y="16" width="2" height="2" fill="#5BD46E"/>
  <rect x="16" y="16" width="2" height="2" fill="#E1FFD7"/>
  <rect x="18" y="16" width="2" height="2" fill="#D2E882"/>
  <rect x="20" y="16" width="2" height="2" fill="#1C1C20"/>
  <rect x="22" y="16" width="2" height="2" fill="#D2E882"/>
  <rect x="24" y="16" width="2" height="2" fill="#365C1E"/>
  <rect x="6"  y="18" width="2" height="2" fill="#365C1E"/>
  <rect x="8"  y="18" width="6" height="2" fill="#D2E882"/>
  <rect x="14" y="18" width="2" height="2" fill="#287538"/>
  <rect x="16" y="18" width="2" height="2" fill="#287538"/>
  <rect x="18" y="18" width="6" height="2" fill="#D2E882"/>
  <rect x="24" y="18" width="2" height="2" fill="#365C1E"/>
  <rect x="6"  y="20" width="2" height="2" fill="#365C1E"/>
  <rect x="8"  y="20" width="6" height="2" fill="#D2E882"/>
  <rect x="14" y="20" width="4" height="2" fill="#FFB6C1"/>
  <rect x="18" y="20" width="6" height="2" fill="#D2E882"/>
  <rect x="24" y="20" width="2" height="2" fill="#365C1E"/>
  <rect x="6"  y="22" width="2" height="2" fill="#365C1E"/>
  <rect x="8"  y="22" width="2" height="2" fill="#D2E882"/>
  <rect x="10" y="22" width="12" height="2" fill="#85B240"/>
  <rect x="22" y="22" width="2" height="2" fill="#D2E882"/>
  <rect x="24" y="22" width="2" height="2" fill="#365C1E"/>
  <rect x="6"  y="24" width="2" height="2" fill="#365C1E"/>
  <rect x="8"  y="24" width="2" height="2" fill="#D2E882"/>
  <rect x="10" y="24" width="4" height="2" fill="#85B240"/>
  <rect x="14" y="24" width="2" height="2" fill="#287538"/>
  <rect x="16" y="24" width="2" height="2" fill="#5BD46E"/>
  <rect x="18" y="24" width="4" height="2" fill="#85B240"/>
  <rect x="22" y="24" width="2" height="2" fill="#D2E882"/>
  <rect x="24" y="24" width="2" height="2" fill="#365C1E"/>
  <rect x="6"  y="26" width="2" height="2" fill="#365C1E"/>
  <rect x="8"  y="26" width="2" height="2" fill="#D2E882"/>
  <rect x="10" y="26" width="12" height="2" fill="#85B240"/>
  <rect x="22" y="26" width="2" height="2" fill="#D2E882"/>
  <rect x="24" y="26" width="2" height="2" fill="#365C1E"/>
  <rect x="6"  y="28" width="4" height="2" fill="#365C1E"/>
  <rect x="10" y="28" width="2" height="2" fill="#85B240"/>
  <rect x="12" y="28" width="8" height="2" fill="#365C1E"/>
  <rect x="20" y="28" width="2" height="2" fill="#85B240"/>
  <rect x="22" y="28" width="4" height="2" fill="#365C1E"/>
  <rect x="6"  y="30" width="4" height="2" fill="#5A381E"/>
  <rect x="22" y="30" width="4" height="2" fill="#5A381E"/>
</svg>
